<svg xmlns="http://www.w3.org/2000/svg" viewBox="0 0 454.33 454.33"><defs><style>.cls-1{fill:#fff;}</style></defs><g id="Capa_2" data-name="Capa 2"><g id="Capa_1-2" data-name="Capa 1"><path class="cls-1" d="M227.17,454.33A227.16,227.16,0,0,1,66.54,66.54,227.16,227.16,0,0,1,387.8,387.79,225.69,225.69,0,0,1,227.17,454.33Zm0-444.33C107.42,10,10,107.42,10,227.17s97.42,217.16,217.17,217.16,217.16-97.42,217.16-217.16S346.91,10,227.17,10Z"/><path class="cls-1" d="M350,310.75h-5c-26.65,0-51.84-7.29-72.87-21.09a119.94,119.94,0,0,1-41.77-47,128.38,128.38,0,0,1-113.33,67.9h-5V150.91h5a128.35,128.35,0,0,1,118.1,77.85l.07.15c16.73,42.84,56.61,70,104.8,71.75V154.14h10ZM122.06,161V300.45a118.41,118.41,0,0,0,103.05-69.72A118.39,118.39,0,0,0,122.06,161Z"/></g></g></svg>